<svg width="30" height="37" viewBox="0 0 30 37" fill="none" xmlns="http://www.w3.org/2000/svg">
<path d="M24.9957 35.5155C23.0573 37.4681 20.9409 37.1598 18.9036 36.2349C16.7476 35.2894 14.7696 35.2483 12.495 36.2349C9.64671 37.5092 8.14345 37.1392 6.4424 35.5155C-3.21009 25.1774 -1.78595 9.43381 9.17199 8.85833C11.8423 9.0022 13.7015 10.3792 15.2641 10.5026C17.5981 10.0093 19.8332 8.59114 22.3255 8.77611C25.3122 9.02275 27.5671 10.2559 29.0506 12.4756C22.8793 16.3191 24.343 24.7663 30 27.1299C28.8726 30.2129 27.4089 33.2752 24.976 35.5361L24.9957 35.5155ZM15.0663 8.73501C14.7696 4.1517 18.3498 0.369953 22.4639 0C23.0376 5.30266 17.8355 9.24883 15.0663 8.73501Z" fill="#FE8605"/>
</svg>
