<svg width="44" height="44" viewBox="0 0 44 44" fill="none" xmlns="http://www.w3.org/2000/svg">
<g clip-path="url(#clip0_702_24)">
<path d="M22 17.4161C20.964 17.4164 19.9513 17.6856 19.09 18.1895C18.2288 18.6933 17.5576 19.4094 17.1614 20.247C16.7652 21.0846 16.6618 22.0063 16.8641 22.8953C17.0665 23.7844 17.5656 24.601 18.2983 25.2419C19.031 25.8828 19.9645 26.3192 20.9807 26.496C21.9968 26.6727 23.0501 26.5818 24.0072 26.2348C24.9643 25.8878 25.7824 25.3003 26.358 24.5465C26.9335 23.7927 27.2407 22.9065 27.2407 22C27.2397 20.7843 26.6871 19.6186 25.7045 18.7591C24.7218 17.8996 23.3894 17.4165 22 17.4161ZM34.2483 13.8927C33.9816 13.3013 33.5789 12.7641 33.0651 12.3146C32.5513 11.865 31.9375 11.5127 31.2616 11.2793C29.1991 10.5669 24.2884 10.7267 22 10.7267C19.7116 10.7267 14.8058 10.5609 12.7374 11.2793C12.0615 11.5127 11.4477 11.865 10.9339 12.3146C10.4201 12.7641 10.0174 13.3013 9.75071 13.8927C8.9375 15.6973 9.1192 19.9985 9.1192 21.9991C9.1192 23.9998 8.9375 28.2958 9.75464 30.1065C10.0213 30.6979 10.4241 31.235 10.9378 31.6846C11.4516 32.1341 12.0655 32.4865 12.7413 32.7198C14.8038 33.4323 19.7146 33.2724 22.0039 33.2724C24.2933 33.2724 29.1971 33.4383 31.2655 32.7198C31.9414 32.4865 32.5553 32.1341 33.069 31.6846C33.5828 31.235 33.9855 30.6979 34.2522 30.1065C35.0723 28.3018 34.8837 24.0006 34.8837 22C34.8837 19.9994 35.0723 15.7042 34.2522 13.8935L34.2483 13.8927ZM22 29.0469C20.4072 29.0469 18.8501 28.6336 17.5257 27.8593C16.2013 27.0849 15.169 25.9844 14.5595 24.6967C13.9499 23.4091 13.7904 21.9922 14.1012 20.6252C14.4119 19.2583 15.179 18.0026 16.3053 17.0171C17.4316 16.0316 18.8666 15.3604 20.4288 15.0885C21.9911 14.8166 23.6104 14.9562 25.082 15.4895C26.5536 16.0229 27.8114 16.9261 28.6963 18.085C29.5812 19.2438 30.0536 20.6063 30.0536 22C30.0549 22.9257 29.8474 23.8426 29.4432 24.6981C29.0389 25.5535 28.4457 26.3308 27.6976 26.9854C26.9495 27.64 26.0612 28.159 25.0835 28.5128C24.1058 28.8665 23.058 29.048 22 29.0469ZM30.3855 16.3023C30.0137 16.3025 29.6502 16.2062 29.3409 16.0256C29.0316 15.8449 28.7905 15.5881 28.6481 15.2876C28.5057 14.987 28.4683 14.6563 28.5407 14.3371C28.6132 14.018 28.7921 13.7248 29.055 13.4947C29.3178 13.2646 29.6528 13.1079 30.0175 13.0443C30.3821 12.9808 30.7602 13.0133 31.1037 13.1378C31.4473 13.2622 31.7409 13.4731 31.9475 13.7436C32.1541 14.0141 32.2644 14.3321 32.2644 14.6575C32.2654 14.8736 32.2177 15.0877 32.1239 15.2876C32.0302 15.4874 31.8923 15.6692 31.7181 15.8223C31.5439 15.9754 31.3368 16.097 31.1089 16.1799C30.8809 16.2629 30.6364 16.3057 30.3895 16.3058L30.3855 16.3023ZM39.2857 2.75H4.71429C3.46398 2.75 2.26488 3.1846 1.38078 3.95818C0.496682 4.73177 0 5.78098 0 6.875L0 37.125C0 38.219 0.496682 39.2682 1.38078 40.0418C2.26488 40.8154 3.46398 41.25 4.71429 41.25H39.2857C40.536 41.25 41.7351 40.8154 42.6192 40.0418C43.5033 39.2682 44 38.219 44 37.125V6.875C44 5.78098 43.5033 4.73177 42.6192 3.95818C41.7351 3.1846 40.536 2.75 39.2857 2.75ZM37.6043 27.6719C37.4776 29.8745 36.903 31.8261 35.0654 33.4297C33.2279 35.0333 30.9994 35.5463 28.4851 35.6512C25.8912 35.7792 18.1146 35.7792 15.5208 35.6512C13.0036 35.5403 10.781 35.0367 8.94045 33.4297C7.09991 31.8227 6.52143 29.8702 6.40161 27.6719C6.25527 25.4014 6.25527 18.596 6.40161 16.3281C6.5283 14.1255 7.09598 12.1739 8.94045 10.5703C10.7849 8.96672 13.0134 8.45969 15.5208 8.35484C18.1146 8.2268 25.8912 8.2268 28.4851 8.35484C31.0023 8.4657 33.2318 8.9693 35.0654 10.5763C36.8991 12.1834 37.4845 14.1359 37.6043 16.3384C37.7506 18.6003 37.7506 25.3997 37.6043 27.6719Z" fill="white"/>
</g>
<defs>
<clipPath id="clip0_702_24">
<rect width="44" height="44" fill="white"/>
</clipPath>
</defs>
</svg>
