<svg width="45" height="45" viewBox="0 0 45 45" fill="none" xmlns="http://www.w3.org/2000/svg">
<path d="M22.5 17.1422C21.4404 17.1426 20.4047 17.4572 19.5239 18.0461C18.6431 18.6351 17.9567 19.472 17.5515 20.451C17.1462 21.4301 17.0404 22.5073 17.2474 23.5465C17.4543 24.5857 17.9648 25.5402 18.7142 26.2893C19.4636 27.0384 20.4182 27.5484 21.4575 27.755C22.4967 27.9616 23.5739 27.8554 24.5528 27.4498C25.5317 27.0442 26.3684 26.3575 26.957 25.4764C27.5456 24.5954 27.8598 23.5596 27.8598 22.5C27.8588 21.079 27.2937 19.7165 26.2887 18.7119C25.2837 17.7073 23.921 17.1427 22.5 17.1422ZM35.0267 13.0239C34.7539 12.3327 34.342 11.7048 33.8166 11.1794C33.2911 10.6539 32.6633 10.2421 31.9721 9.96931C29.8627 9.13661 24.8404 9.32344 22.5 9.32344C20.1596 9.32344 15.1423 9.12958 13.0269 9.96931C12.3357 10.2421 11.7079 10.6539 11.1824 11.1794C10.657 11.7048 10.2451 12.3327 9.97232 13.0239C9.14062 15.1333 9.32645 20.1606 9.32645 22.499C9.32645 24.8374 9.14062 29.8587 9.97634 31.9751C10.2491 32.6663 10.661 33.2942 11.1864 33.8196C11.7119 34.3451 12.3397 34.7569 13.0309 35.0297C15.1403 35.8624 20.1626 35.6756 22.504 35.6756C24.8454 35.6756 29.8607 35.8694 31.9761 35.0297C32.6673 34.7569 33.2952 34.3451 33.8206 33.8196C34.3461 33.2942 34.7579 32.6663 35.0307 31.9751C35.8694 29.8657 35.6766 24.8384 35.6766 22.5C35.6766 20.1616 35.8694 15.1413 35.0307 13.0249L35.0267 13.0239ZM22.5 30.7366C20.871 30.7366 19.2785 30.2535 17.924 29.3485C16.5695 28.4434 15.5138 27.1571 14.8904 25.652C14.267 24.147 14.1038 22.4909 14.4217 20.8931C14.7395 19.2954 15.5239 17.8277 16.6758 16.6758C17.8277 15.5239 19.2954 14.7395 20.8931 14.4217C22.4909 14.1038 24.147 14.267 25.652 14.8904C27.1571 15.5138 28.4434 16.5695 29.3485 17.924C30.2535 19.2785 30.7366 20.871 30.7366 22.5C30.7379 23.582 30.5258 24.6537 30.1123 25.6536C29.6989 26.6535 29.0922 27.562 28.3271 28.3271C27.562 29.0922 26.6535 29.6989 25.6536 30.1123C24.6537 30.5258 23.582 30.7379 22.5 30.7366ZM31.0761 15.8404C30.6958 15.8406 30.324 15.728 30.0077 15.5169C29.6914 15.3058 29.4449 15.0056 29.2992 14.6543C29.1535 14.303 29.1153 13.9164 29.1894 13.5434C29.2635 13.1704 29.4465 12.8277 29.7153 12.5588C29.9841 12.2898 30.3267 12.1066 30.6997 12.0323C31.0726 11.9581 31.4592 11.9961 31.8106 12.1416C32.162 12.287 32.4623 12.5335 32.6736 12.8496C32.8849 13.1658 32.9977 13.5376 32.9977 13.9179C32.9987 14.1704 32.9499 14.4207 32.854 14.6543C32.7581 14.8879 32.6171 15.1003 32.4389 15.2793C32.2608 15.4583 32.049 15.6003 31.8159 15.6973C31.5827 15.7943 31.3327 15.8443 31.0801 15.8444L31.0761 15.8404ZM40.1786 0H4.82143C3.54271 0 2.31636 0.507971 1.41216 1.41216C0.50797 2.31636 0 3.54271 0 4.82143L0 40.1786C0 41.4573 0.50797 42.6836 1.41216 43.5878C2.31636 44.492 3.54271 45 4.82143 45H40.1786C41.4573 45 42.6836 44.492 43.5878 43.5878C44.492 42.6836 45 41.4573 45 40.1786V4.82143C45 3.54271 44.492 2.31636 43.5878 1.41216C42.6836 0.507971 41.4573 0 40.1786 0ZM38.4589 29.1295C38.3294 31.7039 37.7417 33.985 35.8624 35.8594C33.983 37.7337 31.7039 38.3334 29.1325 38.4559C26.4797 38.6056 18.5263 38.6056 15.8735 38.4559C13.2991 38.3263 11.026 37.7377 9.14364 35.8594C7.26127 33.981 6.66964 31.6989 6.5471 29.1295C6.39743 26.4757 6.39743 18.5213 6.5471 15.8705C6.67667 13.2961 7.25725 11.015 9.14364 9.14062C11.03 7.26629 13.3092 6.67366 15.8735 6.55112C18.5263 6.40145 26.4797 6.40145 29.1325 6.55112C31.7069 6.68069 33.9871 7.26931 35.8624 9.14766C37.7377 11.026 38.3364 13.3081 38.4589 15.8826C38.6086 18.5263 38.6086 26.4737 38.4589 29.1295Z" fill="white"/>
</svg>
