<svg width="45" height="44" viewBox="0 0 45 44" fill="none" xmlns="http://www.w3.org/2000/svg">
<path d="M22.1635 24.5661L13.1802 33.5495C12.8441 33.8856 12.4163 34.0536 11.8969 34.0536C11.3774 34.0536 10.9497 33.8856 10.6135 33.5495C10.2774 33.2134 10.1094 32.7856 10.1094 32.2661C10.1094 31.7467 10.2774 31.3189 10.6135 30.9828L19.5969 21.9995L10.6135 13.0161C10.2774 12.68 10.1094 12.2523 10.1094 11.7328C10.1094 11.2134 10.2774 10.7856 10.6135 10.4495C10.9497 10.1134 11.3774 9.94531 11.8969 9.94531C12.4163 9.94531 12.8441 10.1134 13.1802 10.4495L22.1635 19.4328L31.1469 10.4495C31.483 10.1134 31.9108 9.94531 32.4302 9.94531C32.9497 9.94531 33.3774 10.1134 33.7135 10.4495C34.0497 10.7856 34.2177 11.2134 34.2177 11.7328C34.2177 12.2523 34.0497 12.68 33.7135 13.0161L24.7302 21.9995L33.7135 30.9828C34.0497 31.3189 34.2177 31.7467 34.2177 32.2661C34.2177 32.7856 34.0497 33.2134 33.7135 33.5495C33.3774 33.8856 32.9497 34.0536 32.4302 34.0536C31.9108 34.0536 31.483 33.8856 31.1469 33.5495L22.1635 24.5661Z" fill="#FE8605"/>
</svg>
