<svg width="63" height="50" viewBox="0 0 63 50" fill="none" xmlns="http://www.w3.org/2000/svg">
<path d="M62.2879 37.3415C62.2879 40.6453 61.049 43.536 58.5712 46.0138C56.231 48.354 53.3403 49.524 49.8989 49.524C46.7328 49.524 43.9109 48.2851 41.4331 45.8073C38.9553 43.3295 37.4411 40.5076 36.8905 37.3415C35.9269 30.7341 37.0969 24.0578 40.4007 17.3127C43.7044 10.5675 48.5223 5.33664 54.8545 1.61994C56.5064 0.65635 57.7453 0.725178 58.5712 1.82642C59.5348 2.79001 59.466 3.68477 58.3647 4.5107C55.8869 6.43788 53.6156 8.91568 51.5508 11.9441C49.6236 14.9725 48.3159 18.2074 47.6276 21.6488C47.077 24.4019 47.6276 25.7785 49.2794 25.7785C53.4091 25.7785 56.5752 26.9485 58.7777 29.2887C61.1178 31.4912 62.2879 34.1755 62.2879 37.3415ZM27.8052 37.3415C27.8052 40.6453 26.5663 43.536 24.0885 46.0138C21.7484 48.354 18.8576 49.524 15.4162 49.524C12.2501 49.524 9.42819 48.2851 6.95039 45.8073C4.47259 43.3295 2.95838 40.5076 2.40776 37.3415C1.44417 30.7341 2.61424 24.0578 5.91797 17.3127C9.2217 10.5675 14.0396 5.33664 20.3718 1.61994C22.0237 0.65635 23.3314 0.725178 24.295 1.82642C25.2586 2.79001 25.1209 3.68477 23.882 4.5107C21.4042 6.43788 19.1329 8.91568 17.0681 11.9441C15.1409 14.9725 13.8332 18.2074 13.1449 21.6488C12.5943 24.4019 13.1449 25.7785 14.7968 25.7785C18.9264 25.7785 22.0925 26.9485 24.295 29.2887C26.6351 31.4912 27.8052 34.1755 27.8052 37.3415Z" fill="#D1D1D1"/>
</svg>
