<svg width="44" height="44" viewBox="0 0 44 44" fill="none" xmlns="http://www.w3.org/2000/svg">
<rect width="44" height="44" rx="10" fill="white"/>
<path d="M36.5352 8.37028L36.5521 8.36409L36.5685 8.35669C36.7806 8.26106 36.9218 8.26998 37.006 8.29998C37.0877 8.32908 37.1876 8.40334 37.2702 8.58484C37.4461 8.97111 37.4872 9.74541 37.0836 10.8913L37.0835 10.8912L37.0798 10.9027L28.0866 38.5493L28.0863 38.5505C27.9356 39.0174 27.7772 39.3633 27.6211 39.605C27.4631 39.8497 27.3282 39.9555 27.2375 39.9962C27.139 40.0403 26.9102 40.0742 26.4838 39.5824L21.6129 31.7727L21.2759 31.2324L20.831 31.688L17.1517 35.4551C17.1515 35.4553 17.1512 35.4556 17.151 35.4558C17.0089 35.6003 16.8954 35.7133 16.7979 35.7993L18.6476 27.4861L32.5295 14.2392C32.53 14.2388 32.5305 14.2383 32.531 14.2378C32.7244 14.0558 32.8826 13.8347 32.9337 13.5822C32.9905 13.3013 32.9032 13.0077 32.6575 12.8202C32.4398 12.6541 32.1705 12.6263 31.9428 12.6556C31.7061 12.6861 31.4595 12.7828 31.22 12.9355L31.2199 12.9354L31.2124 12.9404L15.2288 23.5356L9.98489 19.841L9.98228 19.8392C9.50266 19.5058 9.40875 19.1533 9.47474 18.8851C9.54924 18.5823 9.87565 18.169 10.6808 17.8562L36.5352 8.37028Z" fill="#263238" stroke="black"/>
</svg>
