<svg width="44" height="44" viewBox="0 0 44 44" fill="none" xmlns="http://www.w3.org/2000/svg">
<path d="M39.2857 0H4.71429C2.11161 0 0 2.11161 0 4.71429V39.2857C0 41.8884 2.11161 44 4.71429 44H39.2857C41.8884 44 44 41.8884 44 39.2857V4.71429C44 2.11161 41.8884 0 39.2857 0ZM34.483 15.5964C34.5027 15.8714 34.5027 16.1562 34.5027 16.4312C34.5027 24.9464 28.0205 34.758 16.1759 34.758C12.5223 34.758 9.13393 33.6973 6.28571 31.8705C6.80625 31.9295 7.30714 31.9491 7.8375 31.9491C10.8527 31.9491 13.6223 30.9277 15.8321 29.1991C13.0036 29.1402 10.6268 27.2839 9.81161 24.7304C10.8036 24.8777 11.6973 24.8777 12.7187 24.6125C9.77232 24.0134 7.5625 21.4205 7.5625 18.2875V18.2089C8.41696 18.6902 9.41875 18.9848 10.4696 19.0241C9.58613 18.4364 8.86186 17.6392 8.36144 16.7035C7.86103 15.7678 7.60005 14.7227 7.60179 13.6616C7.60179 12.4634 7.91607 11.3634 8.47589 10.4107C11.6482 14.3196 16.4116 16.8732 21.7545 17.1482C20.8411 12.7777 24.1116 9.23214 28.0402 9.23214C29.8964 9.23214 31.5661 10.008 32.7446 11.2652C34.1982 10.9902 35.5929 10.45 36.8304 9.71339C36.3491 11.2062 35.3375 12.4634 34.0018 13.2589C35.2982 13.1214 36.5554 12.758 37.7143 12.2571C36.8402 13.5438 35.7402 14.683 34.483 15.5964Z" fill="white"/>
</svg>
